<svg xmlns="http://www.w3.org/2000/svg" width="160" height="160" viewBox="0 0 160 160">
  <g id="Pin" transform="translate(-92 -204)">
    <g id="Group_29" data-name="Group 29" transform="translate(92 204)">
      <circle id="Bg" cx="80" cy="80" r="80" fill="#fff"/>
    </g>
    <g id="pin-2" data-name="pin" transform="translate(173.657 239.006)">
      <path id="Path_142" data-name="Path 142" d="M36.03,5A25.03,25.03,0,0,0,11,30.03c0,20.262,25.03,39.333,25.03,39.333S61.06,50.292,61.06,30.03A25.03,25.03,0,0,0,36.03,5Zm0,36.949A11.919,11.919,0,1,1,47.949,30.03,11.919,11.919,0,0,1,36.03,41.949Z" transform="translate(-11 -5)" fill="#d90504"/>
    </g>
    <g id="burger" transform="translate(124.04 264.858)">
      <path id="Path_1" data-name="Path 1" d="M93.094,272.181a4.241,4.241,0,0,1-4.242,4.242H39.766a4.242,4.242,0,1,1,0-8.485H88.852a4.238,4.238,0,0,1,4.242,4.242Z" transform="translate(-30.886 -235.678)" fill="#884d00"/>
      <path id="Path_2" data-name="Path 2" d="M95.243,270.424a4.249,4.249,0,0,1-3.863,2.483H42.3a4.247,4.247,0,0,1-3.863-2.483A4.247,4.247,0,0,1,42.3,267.94H91.381A4.243,4.243,0,0,1,95.243,270.424Z" transform="translate(-33.415 -235.679)" fill="#aa6100"/>
      <path id="Path_3" data-name="Path 3" d="M72.443,331.944a14.012,14.012,0,0,1-6.621,12.222c-4.092,2.7-9.744,4.023-15.987,4.023H30.183c-12.486,0-22.608-5.313-22.608-16.245A3.637,3.637,0,0,1,8,330.237a4.113,4.113,0,0,1,.942-1.183,5.005,5.005,0,0,1,3.3-1.2H67.775a4.746,4.746,0,0,1,4.242,2.38A3.634,3.634,0,0,1,72.443,331.944Z" transform="translate(-6.586 -287.773)" fill="#ffa733"/>
      <path id="Path_4" data-name="Path 4" d="M74.854,330.237a14.031,14.031,0,0,1-6.2,8.522c-4.092,2.7-9.744,4.023-15.987,4.023H33.02c-10.985,0-20.14-4.112-22.182-12.545a4.113,4.113,0,0,1,.942-1.183,5.005,5.005,0,0,1,3.3-1.2H70.612A4.746,4.746,0,0,1,74.854,330.237Z" transform="translate(-9.423 -287.773)" fill="#ffb655"/>
      <path id="Path_5" data-name="Path 5" d="M191.76,254.3l-10.974,10.974a5.972,5.972,0,0,1-8.446,0L161.365,254.3Z" transform="translate(-140.297 -223.822)" fill="#eebf00"/>
      <path id="Path_6" data-name="Path 6" d="M231.567,254.3l-10.974,10.974a6.008,6.008,0,0,1-.881.727,5.924,5.924,0,0,1-2.291-1.43L207.15,254.3h24.417Z" transform="translate(-180.105 -223.821)" fill="#ffd422"/>
      <path id="Path_7" data-name="Path 7" d="M79.411,238.2a5.14,5.14,0,0,1-.3,1.737c-.806,2.248-2.963,3.121-4.644,1.879l-2.016-1.489a2.843,2.843,0,0,0-4.22,1l-.086.136a2.85,2.85,0,0,1-4.072,1.105l-4.515-2.953a2.7,2.7,0,0,0-3.277.2l-3.619,2.944a2.706,2.706,0,0,1-3.43.091L45.1,239.789a2.7,2.7,0,0,0-3.4.066l-3.758,2.984a2.7,2.7,0,0,1-3.32.123l-4.866-3.381a2.681,2.681,0,0,0-3.082-.049L22.139,242.5a4.736,4.736,0,0,1-4.493-1.83,5.065,5.065,0,0,1-.4-4,3.387,3.387,0,0,1,3.059-2.648H76.118a3.4,3.4,0,0,1,3.058,2.641A5.1,5.1,0,0,1,79.411,238.2Z" transform="translate(-14.785 -206.188)" fill="#6dc82a"/>
      <path id="Path_8" data-name="Path 8" d="M80.743,236.662c-.02.066-.042.131-.066.2-.806,2.25-2.963,3.123-4.644,1.88l-2.016-1.49a2.845,2.845,0,0,0-4.22,1l-.086.137a2.85,2.85,0,0,1-4.072,1.105l-4.515-2.953a2.7,2.7,0,0,0-3.277.2l-3.619,2.944a2.706,2.706,0,0,1-3.43.09l-4.128-3.059a2.7,2.7,0,0,0-3.4.066l-3.758,2.986a2.7,2.7,0,0,1-3.32.123L31.327,236.5a2.677,2.677,0,0,0-3.082-.049l-4.539,2.967a4.733,4.733,0,0,1-4.493-1.83,4.725,4.725,0,0,1-.4-.923,3.387,3.387,0,0,1,3.059-2.648H77.685A3.4,3.4,0,0,1,80.743,236.662Z" transform="translate(-16.352 -206.188)" fill="#7ed63e"/>
      <path id="Path_9" data-name="Path 9" d="M85.773,185.5a4.244,4.244,0,0,1-4.251,4.34c-7.622,0-27.924-.171-30.986-.07l-.2.007c-3.866.146-4.747.766-4.747,2.827v7.542a1.4,1.4,0,0,1-1.4,1.406,1.405,1.405,0,0,0-1.406,1.406v3.285a4.044,4.044,0,0,1-.116.968,4.1,4.1,0,0,1-4,3.129h-.1a4,4,0,0,1-4-4.01l.018-5.946a1.657,1.657,0,0,1,1.658-1.652,1.658,1.658,0,0,0,1.658-1.658v-4.469a2.763,2.763,0,0,0-2.764-2.764H29.953a4.306,4.306,0,0,1-4.333-4.165,4.254,4.254,0,0,1,4.253-4.34H81.437A4.307,4.307,0,0,1,85.773,185.5Z" transform="translate(-22.274 -160.382)" fill="#ff3501"/>
      <path id="Path_10" data-name="Path 10" d="M117.387,185.5a4.283,4.283,0,0,1-.162,1.262c-8.069-.008-27.35-.167-30.328-.07-4.041.133-4.952.738-4.952,2.835v.249c-3.866.146-4.747.766-4.747,2.827v7.542a1.4,1.4,0,0,1-1.4,1.406,1.405,1.405,0,0,0-1.406,1.406v3.285a4.044,4.044,0,0,1-.116.968,4,4,0,0,1-3.355-3.959l.018-5.945a1.657,1.657,0,0,1,1.658-1.652A1.658,1.658,0,0,0,74.25,194v-4.469a2.763,2.763,0,0,0-2.764-2.764H66.314a4.306,4.306,0,0,1-4.333-4.165,4.255,4.255,0,0,1,.163-1.263h50.906A4.307,4.307,0,0,1,117.387,185.5Z" transform="translate(-53.888 -160.382)" fill="#ff5023"/>
      <path id="Path_11" data-name="Path 11" d="M95.859,148.227,86.45,157.64a8.37,8.37,0,0,1-11.837,0L65.2,148.227H95.859Z" transform="translate(-56.688 -131.595)" fill="#eebf00"/>
      <path id="Path_12" data-name="Path 12" d="M131.566,148.227l-9.409,9.413a8.3,8.3,0,0,1-3.239,2.011,8.3,8.3,0,0,1-3.236-2.011l-9.413-9.413h25.3Z" transform="translate(-92.395 -131.595)" fill="#ffd422"/>
      <path id="Path_13" data-name="Path 13" d="M72.444,45.379c0,.07,0,.139-.007.207a3.5,3.5,0,0,1-3.5,3.3H11.08a3.5,3.5,0,0,1-3.5-3.5,12.129,12.129,0,0,1,4.886-9.737,27.08,27.08,0,0,1,8.61-4.383A69.184,69.184,0,0,1,40.01,28.413S72.444,28.237,72.444,45.379Z" transform="translate(-6.587 -27.424)" fill="#ffa733"/>
      <path id="Path_14" data-name="Path 14" d="M119.866,45.379c0,.07,0,.139-.007.207H65.623a3.5,3.5,0,0,1-3.5-3.5A12.129,12.129,0,0,1,67,32.345q.708-.574,1.489-1.087a69.18,69.18,0,0,1,18.938-2.846S119.866,28.237,119.866,45.379Z" transform="translate(-54.009 -27.424)" fill="#ffb655"/>
      <g id="Group_1" data-name="Group 1" transform="translate(15.778 5.319)">
        <path id="Path_15" data-name="Path 15" d="M367.308,66.481a1.483,1.483,0,1,1-2.155,2.037c-.562-.6-1.6-2.657-1-3.22S366.745,65.886,367.308,66.481Z" transform="translate(-332.23 -64.682)" fill="#fff5cc"/>
        <path id="Path_16" data-name="Path 16" d="M309.234,115.991a1.483,1.483,0,1,1-2.768,1.063c-.293-.764-.466-3.065.3-3.359S308.941,115.227,309.234,115.991Z" transform="translate(-282.016 -106.864)" fill="#fff5cc"/>
        <path id="Path_17" data-name="Path 17" d="M247.609,64.611a1.483,1.483,0,0,1-2.966,0c0-.819.664-3.029,1.483-3.029S247.609,63.792,247.609,64.611Z" transform="translate(-228.481 -61.582)" fill="#fff5cc"/>
        <path id="Path_18" data-name="Path 18" d="M185.475,116.512a1.483,1.483,0,1,1-2.871-.742c.2-.793,1.4-2.766,2.193-2.562S185.68,115.72,185.475,116.512Z" transform="translate(-174.5 -106.456)" fill="#fff5cc"/>
        <path id="Path_19" data-name="Path 19" d="M123.67,66.357A1.483,1.483,0,1,1,121,65.064c.357-.737,1.918-2.436,2.655-2.079S124.027,65.62,123.67,66.357Z" transform="translate(-120.852 -62.759)" fill="#fff5cc"/>
      </g>
      <path id="Path_20" data-name="Path 20" d="M117.307,381.265a.991.991,0,0,0-1.2.713c-1.859,7.282-9.778,11.63-21.183,11.63H75.272c-5.664,0-10.63-1.108-14.365-3.2a.989.989,0,0,0-.968,1.725c4.029,2.262,9.331,3.458,15.333,3.458h19.65c9.951,0,20.637-3.477,23.1-13.119A.99.99,0,0,0,117.307,381.265Z" transform="translate(-51.675 -334.182)"/>
      <path id="Path_21" data-name="Path 21" d="M285.514,294.9h0Z" transform="translate(-248.238 -259.117)"/>
      <path id="Path_22" data-name="Path 22" d="M62.432,60.059a5.193,5.193,0,0,0,.762-2.546c2.9-1.677,3.288-6.618.616-8.884a5.181,5.181,0,0,0-.239-5.51,4.5,4.5,0,0,0,3.274-4.325c0-11.328-12.943-15.74-24.226-17.271a.989.989,0,1,0-.266,1.96c9.992,1.357,22.515,5.184,22.515,15.312a2.519,2.519,0,0,1-2.515,2.515H4.493a2.519,2.519,0,0,1-2.515-2.515c0-6.492,5.045-11.144,15-13.828a70.087,70.087,0,0,1,16.487-2.15c.216,0,2.185.007,5,.241a.989.989,0,1,0,.165-1.971c-1.71-.142-3.518-.239-5.241-.248-8.624,0-21.371,1.981-28.132,7.449A13.076,13.076,0,0,0,0,38.794a4.5,4.5,0,0,0,3.252,4.319,5.193,5.193,0,0,0-.207,5.5A5.9,5.9,0,0,0,2,55.813a5.46,5.46,0,0,0,1.646,1.535,5.207,5.207,0,0,0,.764,2.71A5.242,5.242,0,0,0,0,65.008,14.762,14.762,0,0,0,4.874,76.356.989.989,0,0,0,6.209,74.9a12.858,12.858,0,0,1-4.23-9.888,3.431,3.431,0,0,1,3.679-3.1h5.649l-.014,4.871a4.984,4.984,0,0,0,4.986,5h.1A5.1,5.1,0,0,0,21.489,66.7V63.414A.417.417,0,0,1,21.905,63a2.391,2.391,0,0,0,2-1.087h6.176c.586.433,2.294,3.119,6,3.119s5.422-2.688,6.005-3.119h19.1a3.445,3.445,0,0,1,3.679,3.067.988.988,0,0,0,.988.977h.012a.989.989,0,0,0,.979-1A5.264,5.264,0,0,0,62.432,60.059ZM34.755,43.286H60.942a3.2,3.2,0,0,1-1.695,5.951c-21.254,0-1.656-.055-31.02,0C30.21,48.184,30.827,47.08,34.755,43.286ZM3.7,54.79a3.946,3.946,0,0,1,.641-4.678,5.352,5.352,0,0,0,3.342,1.174h5.172a1.777,1.777,0,0,1,1.771,1.66,3.63,3.63,0,0,0-1.225-.214c-1.49,0-2.1.657-6.385,3.459A3.741,3.741,0,0,1,3.7,54.79Zm7.778,5.143H6.919a3.257,3.257,0,0,1-1.2-1.819A4.235,4.235,0,0,0,7.9,57.977l4.539-2.967a1.814,1.814,0,0,1,2.192.183V57.53a.669.669,0,0,1-.669.669A2.652,2.652,0,0,0,11.474,59.933Zm10.847-3.061V60.6a.416.416,0,0,1-.415.417,2.4,2.4,0,0,0-2.395,2.395V66.7a3.165,3.165,0,0,1-5.363,2.223,2.96,2.96,0,0,1-.877-2.193c0-1.436.01-3.1.018-5.887a.67.67,0,0,1,.669-.666A2.65,2.65,0,0,0,16.6,57.53V53.061a3.755,3.755,0,0,0-2.169-3.4c-1.247-.588-1.987-.257-6.756-.352a3.268,3.268,0,0,1-1.824-6.021H12.93l4.3,4.3A9.287,9.287,0,0,0,23.4,50.314C21.931,51.5,22.407,53.134,22.321,56.872Zm-3.7-10.688-2.9-2.9H31.959l-2.9,2.9A7.376,7.376,0,0,1,18.624,46.184ZM24.3,59.933V57.848l.96-.762,2.847,2.847Zm14.966,1.978a4.981,4.981,0,0,1-6.7-.316l-5.747-5.747c.352-.175,1.468-1.684,2.912-.615l4.128,3.059a3.692,3.692,0,0,0,4.642-.117l3.619-2.943A1.7,1.7,0,0,1,44.23,55.1l1.209.79C38.619,62.562,39.453,61.756,39.265,61.911Zm20.663-1.978H44.071l2.987-2.987,1.233.806a4.058,4.058,0,0,0,3.265.839,4.474,4.474,0,0,0,2.724-2.085,1.871,1.871,0,0,1,2.8-.733c1.629,1.076,2.421,2.167,4.071,2.248A3.252,3.252,0,0,1,59.928,59.933Zm.34-4.262c-2.1-1.554-2.021-1.5-2.14-1.578a3.832,3.832,0,0,0-5.521,1.36,2.524,2.524,0,0,1-1.47,1.205c-.871.192-.967-.039-5.825-3.216a3.665,3.665,0,0,0-4.441.256l-3.561,2.9-.021.017,0,0-.006,0,0,0,0,0,0,0-.02.016a1.722,1.722,0,0,1-2.217.063c-4.122-3.055-4.742-3.811-6.347-3.822a4.8,4.8,0,0,0-3.277,1.559l-1.112.882V53.061c0-2.618.562-1.775,34.949-1.775a5.2,5.2,0,0,0,3.281-1.153,3.9,3.9,0,0,1,.866,4.118C62.861,55.739,61.493,56.574,60.268,55.671Z" transform="translate(0 -20.838)"/>
      <path id="Path_23" data-name="Path 23" d="M356.878,57.983c-.587.555-.647,1.454-.176,2.672.557,1.444,1.4,2.72,2.938,2.72a2.475,2.475,0,0,0,1.795-4.169h0C360.873,58.611,358.205,56.728,356.878,57.983Zm2.745,3.414a.492.492,0,0,1-.345-.154,5.041,5.041,0,0,1-.838-1.606,5.04,5.04,0,0,1,1.556.928A.494.494,0,0,1,359.624,61.4Z" transform="translate(-309.859 -52.766)"/>
      <path id="Path_24" data-name="Path 24" d="M298.916,110.807a2.472,2.472,0,1,0,4.615-1.772h0c-.293-.763-2.042-3.519-3.748-2.865S298.623,110.044,298.916,110.807Zm1.683-2.513a5.044,5.044,0,0,1,1.086,1.45h0a.494.494,0,0,1-.922.354A5.04,5.04,0,0,1,300.6,108.294Z" transform="translate(-259.611 -94.943)"/>
      <path id="Path_25" data-name="Path 25" d="M237.067,58.024a2.472,2.472,0,0,0,4.944,0c0-.818-.645-4.018-2.472-4.018S237.067,57.206,237.067,58.024Zm2.472.494a.494.494,0,0,1-.494-.494,5.039,5.039,0,0,1,.494-1.743,5.036,5.036,0,0,1,.494,1.743A.494.494,0,0,1,239.539,58.517Z" transform="translate(-206.116 -49.676)"/>
      <path id="Path_26" data-name="Path 26" d="M176.115,106.92c-.9,1.2-1.544,2.572-.777,3.873a2.475,2.475,0,0,0,4.523-.637c.2-.792.38-4.051-1.388-4.508C177.69,105.446,176.9,105.874,176.115,106.92Zm1.83,2.741a.494.494,0,1,1-.956-.247,5.036,5.036,0,0,1,.914-1.564A5.038,5.038,0,0,1,177.945,109.661Z" transform="translate(-152.15 -94.533)"/>
      <path id="Path_27" data-name="Path 27" d="M113.512,58.076a2.472,2.472,0,0,0,4.449,2.155c.431-.889,1.092-3.935-.473-4.693C115.956,54.8,113.971,57.129,113.512,58.076Zm2.669,1.293a.494.494,0,1,1-.889-.431,5.039,5.039,0,0,1,1.2-1.353A5.045,5.045,0,0,1,116.181,59.369Z" transform="translate(-98.476 -50.883)"/>
    </g>
  </g>
</svg>
